<svg t="1652402885201" class="icon" viewBox="0 0 1024 1024" version="1.1" xmlns="http://www.w3.org/2000/svg" p-id="5095" width="32" height="32">
  <path d="M511.333 63.946c-247.424 0-448 200.576-448 448 0 199.467 130.372 368.456 310.543 426.483 1.802-0.828 3.973-1.608 6.625-2.271 15.858-3.965 15.858-11.894 15.858-11.894v-91.186c-63.434 15.858-126.867-7.929-138.761-35.681-11.894-27.752-43.611-75.327-43.611-75.327-43.611-19.823-31.717-31.717-31.717-31.717 39.646-19.823 79.292 31.717 79.292 31.717s19.823 39.646 59.469 55.504c39.646 15.858 79.292-7.929 79.292-7.929-3.965-39.646 23.788-63.434 23.788-63.434-67.398 0-171.912-31.439-194.266-150.655-23.788-126.867 39.646-186.336 39.646-186.336-27.752-51.54 3.965-118.938 3.965-118.938 71.363 0 122.903 47.575 122.903 47.575C424.112 282 515.298 282 515.298 282s91.186 0 118.938 15.858c0 0 51.54-47.575 122.903-47.575 0 0 31.717 67.398 3.965 118.938 0 0 63.434 59.469 39.646 186.336-22.353 119.216-126.867 150.655-194.266 150.655 0 0 26.88 23.6 27.752 63.434 0.348 15.885 0 63.434 0 63.434v91.186s0 7.929 15.858 11.894c1.084 0.271 2.079 0.563 3.018 0.868 177.933-59.32 306.221-227.211 306.221-425.081 0-247.424-200.576-448.001-448-448.001z" p-id="5096" fill="#1296db"></path>
</svg>